<?xml version="1.0" standalone="no"?><!DOCTYPE svg PUBLIC "-//W3C//DTD SVG 1.1//EN" "http://www.w3.org/Graphics/SVG/1.1/DTD/svg11.dtd"><svg class="icon" width="200px" height="200.00px" viewBox="0 0 1024 1024" version="1.1" xmlns="http://www.w3.org/2000/svg"><path fill="#ffffff" d="M992.170667 540.458667H555.477333c-44.842667 0-89.6 20.864-114.858666 54.016v-0.725334a138.24 138.24 0 0 1-112.170667 57.728 138.666667 138.666667 0 0 1 0-277.418666c46.293333 0 86.997333 22.869333 112.170667 57.728v-0.554667c25.258667 33.109333 70.016 54.314667 114.858666 54.314667h432.170667c7.936-0.213333 37.248-4.053333 36.181333-41.856-37.717333-217.002667-250.837333-383.445333-508.714666-383.445334-158.762667 0-300.672 63.146667-395.178667 162.261334-15.189333 22.485333 0.597333 29.397333 14.933333 31.317333h281.941334c44.8 0 89.6-21.248 114.816-54.485333v0.768a138.325333 138.325333 0 0 1 112.213333-57.813334 138.752 138.752 0 0 1 0 277.461334 138.24 138.24 0 0 1-112.213333-57.813334v0.810667c-25.216-33.237333-70.016-54.016-114.816-54.016h-308.053334l1.194667 0.128s-45.568-2.56-73.344 36.650667C15.402667 379.733333 0 453.162667 0 512.085333c0 59.221333 8.448 113.024 36.992 167.381334 24.064 38.741333 72.96 36.224 72.96 36.224l-1.792 0.256h308.608c44.8 0 89.6-20.906667 114.816-54.101334v0.810667a138.325333 138.325333 0 0 1 112.213333-57.813333 138.709333 138.709333 0 0 1 0 277.418666 138.282667 138.282667 0 0 1-112.213333-57.770666v0.768c-25.216-33.237333-70.016-54.485333-114.816-54.485334H134.997333c-13.994667 1.792-29.781333 8.448-16.170666 29.824 94.549333 99.712 237.013333 163.157333 396.288 163.157334 258.304 0 471.722667-166.869333 508.842666-384.384-0.170667-30.421333-20.864-37.418667-31.786666-38.912" /></svg>